<svg width="232" height="83" viewBox="0 0 232 83" fill="none" xmlns="http://www.w3.org/2000/svg">
<path fill-rule="evenodd" clip-rule="evenodd" d="M128.837 59.2104C126.843 59.2104 125.177 58.746 123.839 57.8171C123.693 57.7155 123.55 57.6099 123.412 57.5002V58.6531H118.953V24.6848H124.044V39.2368C125.292 38.4339 126.803 38.0324 128.576 38.0324C130.496 38.0324 132.168 38.4907 133.592 39.4071C135.017 40.3236 136.119 41.5807 136.899 43.1783C137.692 44.7636 138.088 46.5779 138.088 48.6214C138.088 50.6278 137.698 52.4297 136.918 54.0274C136.15 55.625 135.072 56.8883 133.685 57.8171C132.298 58.746 130.682 59.2104 128.837 59.2104ZM123.858 45.4262C123.561 46.3426 123.412 47.4077 123.412 48.6214C123.412 49.8352 123.561 50.9002 123.858 51.8167C124.155 52.7332 124.638 53.4453 125.307 53.9531C125.988 54.4608 126.892 54.7147 128.019 54.7147C129.109 54.7147 130.001 54.4423 130.694 53.8973C131.388 53.3524 131.902 52.6217 132.236 51.7052C132.571 50.7764 132.738 49.7485 132.738 48.6214C132.738 47.5068 132.564 46.4913 132.218 45.5748C131.871 44.6459 131.332 43.909 130.601 43.3641C129.883 42.8068 128.96 42.5281 127.833 42.5281C126.781 42.5281 125.926 42.782 125.27 43.2898C124.626 43.7976 124.155 44.5097 123.858 45.4262Z" fill="white"/>
<path d="M110.017 43.7171C110.649 44.4478 110.965 45.4757 110.965 46.8009V58.6531H116.018V45.4633C116.018 43.2712 115.429 41.5002 114.253 40.1502C113.089 38.7879 111.361 38.1067 109.07 38.1067C107.732 38.1067 106.512 38.404 105.41 38.9984C104.401 39.5374 103.578 40.2781 102.94 41.2206C102.465 40.3653 101.808 39.6617 100.97 39.1099C99.9669 38.4411 98.6789 38.1067 97.106 38.1067C95.7313 38.1067 94.4866 38.4101 93.372 39.017C92.5296 39.4807 91.8175 40.0711 91.2356 40.7879V38.5897H86.777V58.6531H91.8672V46.5036C91.8672 45.3519 92.183 44.4168 92.8146 43.6985C93.4587 42.9678 94.307 42.6024 95.3597 42.6024C96.462 42.6024 97.3227 42.974 97.942 43.7171C98.5736 44.4478 98.8894 45.4757 98.8894 46.8009V58.6531H103.942V46.5036C103.942 45.7358 104.085 45.0608 104.37 44.4787C104.667 43.8842 105.076 43.426 105.596 43.104C106.116 42.7696 106.729 42.6024 107.435 42.6024C108.537 42.6024 109.398 42.974 110.017 43.7171Z" fill="white"/>
<path d="M68.6738 58.4488C69.6646 58.9813 70.9464 59.2476 72.5193 59.2476C74.4885 59.2476 76.1171 58.8203 77.4051 57.9657C78.0164 57.5641 78.5551 57.1036 79.0213 56.5842V58.6531H83.4799V38.5897H78.3897V48.7701C78.3897 50.0085 78.2473 51.0117 77.9624 51.7795C77.69 52.535 77.337 53.1109 76.9035 53.5072C76.47 53.8911 76.0056 54.1512 75.5102 54.2875C75.0148 54.4237 74.5504 54.4918 74.1169 54.4918C73.0394 54.4918 72.2035 54.2503 71.609 53.7673C71.0269 53.2843 70.6058 52.6836 70.3457 51.9653C70.0857 51.247 69.9309 50.5349 69.8813 49.8289C69.8318 49.1106 69.807 48.5224 69.807 48.0641V38.5897H64.6797V49.8475C64.6797 50.1819 64.7045 50.7144 64.754 51.4451C64.8035 52.1759 64.946 52.9871 65.1813 53.8788C65.4166 54.7581 65.8067 55.6064 66.3516 56.4238C66.909 57.2412 67.683 57.9162 68.6738 58.4488Z" fill="white"/>
<path d="M145.334 40.9676C145.129 41.2373 144.943 41.5209 144.777 41.8183V38.5897H140.318V58.6531H145.408V48.3985C145.408 47.6307 145.514 46.9433 145.724 46.3364C145.935 45.7172 146.244 45.1847 146.653 44.7388C147.062 44.2806 147.563 43.9152 148.158 43.6427C148.752 43.3579 149.415 43.1907 150.145 43.1412C150.889 43.0792 151.539 43.135 152.096 43.3084V38.5897C151.489 38.5154 150.882 38.503 150.276 38.5526C149.669 38.5897 149.08 38.695 148.511 38.8684C147.941 39.0294 147.415 39.2585 146.932 39.5557C146.3 39.9273 145.767 40.3979 145.334 40.9676Z" fill="white"/>
<path fill-rule="evenodd" clip-rule="evenodd" d="M162.735 59.2104C160.679 59.2104 158.865 58.7708 157.292 57.8914C155.731 56.9997 154.505 55.7798 153.614 54.2317C152.734 52.6712 152.295 50.8879 152.295 48.8815C152.295 46.6894 152.728 44.7821 153.595 43.1597C154.462 41.5373 155.657 40.2803 157.18 39.3886C158.704 38.4845 160.456 38.0324 162.438 38.0324C164.543 38.0324 166.333 38.5278 167.807 39.5186C169.28 40.5094 170.37 41.9027 171.076 43.6985C171.782 45.4943 172.03 47.6059 171.819 50.0333H157.731C157.889 51.2374 158.263 52.2158 158.852 52.9685C159.67 53.984 160.865 54.4918 162.438 54.4918C163.429 54.4918 164.277 54.2751 164.983 53.8416C165.689 53.4081 166.228 52.7827 166.599 51.9653L171.652 53.4143C170.897 55.2473 169.702 56.6715 168.067 57.6871C166.444 58.7026 164.667 59.2104 162.735 59.2104ZM165.837 43.7728C166.269 44.3595 166.559 45.1954 166.707 46.2807H157.864C158.061 45.354 158.391 44.5924 158.852 43.9957C159.67 42.943 160.939 42.4166 162.661 42.4166C164.135 42.4166 165.193 42.8687 165.837 43.7728Z" fill="white"/>
<path fill-rule="evenodd" clip-rule="evenodd" d="M194.342 58.393C195.345 58.938 196.565 59.2104 198.002 59.2104C199.736 59.2104 201.166 58.9132 202.293 58.3187C203.192 57.8402 204.04 57.1307 204.838 56.1902V58.6531H209.26V46.3922C209.26 45.4757 209.223 44.6459 209.148 43.9028C209.074 43.1597 208.839 42.4166 208.442 41.6736C207.736 40.336 206.696 39.3947 205.321 38.8498C203.947 38.3049 202.374 38.0324 200.603 38.0324C198.188 38.0324 196.28 38.5526 194.881 39.5929C193.481 40.6332 192.528 41.9832 192.02 43.6427L196.59 45.0918C196.912 44.1753 197.476 43.5375 198.281 43.1783C199.086 42.8192 199.86 42.6396 200.603 42.6396C201.94 42.6396 202.894 42.9182 203.464 43.4755C203.911 43.9132 204.183 44.5456 204.279 45.3728C203.423 45.5023 202.613 45.6253 201.847 45.742C200.547 45.9277 199.383 46.1259 198.355 46.3364C197.327 46.547 196.441 46.7885 195.698 47.061C194.621 47.4573 193.76 47.9527 193.116 48.5471C192.484 49.1292 192.026 49.8042 191.741 50.572C191.457 51.3399 191.314 52.1882 191.314 53.1171C191.314 54.2317 191.568 55.2535 192.076 56.1823C192.596 57.0988 193.351 57.8357 194.342 58.393ZM201.42 54.7519C200.788 55.0739 200.008 55.2349 199.079 55.2349C198.497 55.2349 197.996 55.1482 197.575 54.9748C197.154 54.8014 196.825 54.5537 196.59 54.2317C196.367 53.8973 196.256 53.501 196.256 53.0428C196.256 52.7084 196.324 52.405 196.46 52.1325C196.609 51.86 196.832 51.6123 197.129 51.3894C197.438 51.1541 197.841 50.9374 198.336 50.7392C198.77 50.5782 199.271 50.4296 199.841 50.2934C200.411 50.1571 201.16 50.0085 202.089 49.8475C202.686 49.7361 203.4 49.6093 204.233 49.4672C204.221 49.8205 204.2 50.2197 204.17 50.6649C204.132 51.3832 203.984 52.0148 203.724 52.5598C203.587 52.8446 203.327 53.1976 202.943 53.6187C202.572 54.0398 202.064 54.4175 201.42 54.7519Z" fill="white"/>
<path d="M174.528 24.1274V58.6531H179.581V24.1274H174.528Z" fill="white"/>
<path d="M183.664 58.6531V24.1274H188.717V58.6531H183.664Z" fill="white"/>
<path fill-rule="evenodd" clip-rule="evenodd" d="M36.7921 38.7345H23.0703V44.7101C23.0703 53.633 30.3037 60.8664 39.2266 60.8664C48.1494 60.8664 55.3828 53.633 55.3828 44.7101V38.7345H41.2184L41.2184 29.2178C41.2184 25.4287 38.1467 22.3569 34.3576 22.3569C30.5684 22.3569 27.4967 25.4287 27.4967 29.2178L31.9231 29.2178C31.9231 27.8733 33.013 26.7833 34.3576 26.7833C35.7021 26.7833 36.7921 27.8733 36.7921 29.2178L36.7921 38.7345ZM36.7921 43.1609L36.7921 51.571L41.2184 51.571L41.2184 43.1609H50.9565V44.7101C50.9565 51.1884 45.7048 56.44 39.2266 56.44C32.7483 56.44 27.4967 51.1884 27.4967 44.7101V43.1609H36.7921Z" fill="white"/>
</svg>
