<svg version="1.2" xmlns="http://www.w3.org/2000/svg" viewBox="0 0 1280 720" width="1280" height="720">
	<title>New Project</title>
	<style>
		.s0 { fill: #ffffff } 
	</style>
	<path id="Zurvan Labs" class="s0" aria-label="Zurvan Labs"  d="m28.7 307.5v-14.6h87.6v23.6l-78.6 90.6v2.3h80.9v14.6h-94.4v-23.6l78.6-90.6v-2.3zm182.8 71.9v-48.3h14.6v92.9h-14.6v-16.9h-2.3q-4.5 9-11.8 14.3-7.3 5.2-18.5 5.2-7.7 0-14.2-2.4-6.4-2.6-11.1-7.7-4.5-5-7.1-12.5-2.4-7.5-2.4-17.4v-55.5h14.6v53.6q0 14.6 6 21.3 6 6.8 18.3 6.8 13.3 0 20.8-9 7.7-9.2 7.7-24.4zm43.1-34.8v-13.5h33.7v12.4h2.2q3.6-7.7 10.1-11.3 6.6-3.7 15-3.7 14 0 22.7 9.2 8.6 9.2 9.1 26.8l-15.3 2.2q0-12.9-6.2-18.5-6.2-5.8-15.2-5.8-5.8 0-10.1 2.2-4.1 2.3-6.9 6.2-2.8 3.9-4.1 9.2-1.3 5.2-1.3 11.2v39.3h23.6v13.5h-59.6v-13.5h21.4v-65.9zm207.4-13.5l-32.4 92.9h-28.8l-32.4-92.9h17.2l28.5 86.2h2.2l28.5-86.2zm94.4 78.3v-1.1h-2.3q-4.5 9.3-12.5 13.8-7.9 4.5-16.7 4.5-9.2 0-17-3-7.9-3.2-13.9-9.1-5.8-6.2-9.2-15-3.3-8.8-3.3-20.4v-3q0-11.5 3.3-20.3 3.4-8.8 9.2-14.8 6-6.1 13.9-9.3 7.8-3.2 16.6-3.2 9.6 0 17.3 4.3 7.8 4.1 12.3 12.9h2.3v-14.6h14.6v73.8q0 5.6 5 5.6h4.7v13.5h-9.9q-6.4 0-10.5-4.1-3.9-4.1-3.9-10.5zm-30 3.4q6.6 0 12-2.5 5.6-2.4 9.5-6.9 4-4.5 6.2-10.7 2.3-6.3 2.3-14v-2.3q0-7.5-2.3-13.6-2.2-6.4-6.3-10.9-4-4.5-9.6-6.9-5.4-2.6-11.8-2.6-6.5 0-12 2.4-5.4 2.4-9.5 6.9-4 4.3-6.2 10.7-2.3 6.2-2.3 13.7v3q0 15.9 8.3 24.9 8.4 8.8 21.7 8.8zm91.8-37.1v48.3h-14.6v-92.9h14.6v15.8h2.2q8.6-18.4 30-18.4 16.1 0 25.6 10.1 9.6 9.9 9.6 30v55.4h-14.6v-52.4q0-14.6-6.6-21.9-6.5-7.3-17.8-7.3-13.3 0-20.9 9.1-7.5 9-7.5 24.2zm214.5 48.3v-131.1h15.8v116.5h68.5v14.6zm182-14.6v-1.1h-2.2q-4.5 9.3-12.6 13.8-7.8 4.5-16.6 4.5-9.2 0-17.1-3-7.8-3.2-13.8-9.1-5.8-6.2-9.2-15-3.4-8.8-3.4-20.4v-3q0-11.5 3.4-20.3 3.4-8.8 9.2-14.8 6-6.1 13.8-9.3 7.9-3.2 16.7-3.2 9.5 0 17.2 4.3 7.9 4.1 12.4 12.9h2.2v-14.6h14.6v73.8q0 5.6 5.1 5.6h4.7v13.5h-10q-6.3 0-10.5-4.1-3.9-4.1-3.9-10.5zm-29.9 3.4q6.5 0 11.9-2.5 5.7-2.4 9.6-6.9 3.9-4.5 6.2-10.7 2.2-6.3 2.2-14v-2.3q0-7.5-2.2-13.6-2.3-6.4-6.4-10.9-3.9-4.5-9.5-6.9-5.5-2.6-11.8-2.6-6.6 0-12 2.4-5.5 2.4-9.6 6.9-3.9 4.3-6.2 10.7-2.2 6.2-2.2 13.7v3q0 15.9 8.2 24.9 8.5 8.8 21.8 8.8zm88.3-3v14.2h-14.6v-131.1h14.6v52.8h2.3q4.9-8.4 13.5-12.7 8.6-4.5 18.7-4.5 8.6 0 16.3 3.2 7.7 3.2 13.5 9.2 6 6 9.3 14.8 3.6 8.8 3.6 20v3.7q0 11.5-3.4 20.3-3.4 8.8-9.3 14.8-5.9 5.9-13.7 9.1-7.9 3-16.7 3-4.5 0-9.2-0.9-4.6-1.1-8.9-3.2-4.2-2.2-7.7-5.2-3.6-3.2-6-7.5zm31.1 3q6.7 0 12.3-2.3 5.6-2.4 9.8-6.7 4.3-4.3 6.5-10.5 2.5-6.2 2.5-13.9v-3.7q0-7.5-2.5-13.5-2.2-6.2-6.5-10.5-4.2-4.5-10-6.9-5.6-2.4-12.1-2.4-6.6 0-12.2 2.6-5.6 2.4-9.9 6.9-4.1 4.5-6.6 10.9-2.4 6.1-2.4 13.6v2.3q0 7.7 2.4 14 2.5 6.2 6.6 10.7 4.3 4.5 9.9 6.9 5.6 2.5 12.2 2.5zm91.5-57.7q0 6.7 5.6 10.3 5.9 3.5 21 4.7 16.3 1.3 24.7 7.8 8.7 6.4 8.7 18.8v1.1q0 6.7-2.9 12.2-2.6 5.2-7.4 8.9-4.7 3.8-11.7 5.8-6.7 1.9-14.7 1.9-10.9 0-18.8-2.8-7.7-3-12.9-7.7-5-4.8-7.7-10.8-2.6-6.2-3-12.4l13.9-3.4q0.9 10.7 8.2 17.3 7.3 6.3 19.5 6.3 10.3 0 16.5-3.9 6.3-4.1 6.3-11.4 0-7.9-6.1-11.2-6.2-3.4-20.1-4.4-16.1-1.1-24.7-7.4-8.6-6.4-8.6-18.6v-1.1q0-6.6 2.8-11.4 2.8-5.1 7.5-8.5 4.9-3.3 10.9-5 6-1.7 12.5-1.7 9.2 0 16.1 2.6 6.9 2.5 11.6 6.6 4.7 3.9 7.1 9.2 2.7 5.2 3.4 10.4l-13.9 3.4q-0.9-9-7.3-14-6.1-5.1-16.2-5.1-4 0-7.7 0.9-3.6 0.8-6.4 2.5-2.8 1.7-4.5 4.3-1.7 2.4-1.7 5.8z"/>
</svg>