<svg version="1.2" xmlns="http://www.w3.org/2000/svg" viewBox="0 0 232 83" width="232" height="83">
	<title>umbrella-svg</title>
	<style>
		.s0 { fill: #ffffff } 
	</style>
	<path id="Zurvan Labs" class="s0" aria-label="Zurvan Labs"  d="m7.2 32.3v-2.6h15.6v4.2l-14 16.1v0.4h14.4v2.6h-16.8v-4.2l14-16.1v-0.4zm32.5 12.8v-8.6h2.6v16.5h-2.6v-3h-0.4q-0.8 1.6-2.1 2.5-1.3 1-3.3 1-1.4 0-2.5-0.5-1.2-0.4-2-1.3-0.8-0.9-1.3-2.3-0.4-1.3-0.4-3.1v-9.8h2.6v9.5q0 2.6 1.1 3.8 1 1.2 3.2 1.2 2.4 0 3.7-1.6 1.4-1.6 1.4-4.3zm7.7-6.2v-2.4h6v2.2h0.4q0.6-1.4 1.8-2 1.1-0.7 2.6-0.7 2.5 0 4.1 1.6 1.5 1.7 1.6 4.8l-2.7 0.4q0-2.3-1.1-3.3-1.1-1-2.7-1-1.1 0-1.8 0.4-0.8 0.4-1.3 1.1-0.5 0.7-0.7 1.6-0.2 0.9-0.2 2v7h4.2v2.4h-10.6v-2.4h3.8v-11.7zm36.9-2.4l-5.8 16.5h-5.1l-5.8-16.5h3.1l5.1 15.3h0.4l5-15.3zm16.8 13.9v-0.2h-0.4q-0.8 1.7-2.2 2.5-1.4 0.8-3 0.8-1.6 0-3-0.6-1.4-0.5-2.5-1.6-1-1.1-1.6-2.7-0.6-1.5-0.6-3.6v-0.5q0-2.1 0.6-3.6 0.6-1.6 1.6-2.7 1.1-1.1 2.5-1.6 1.4-0.6 3-0.6 1.7 0 3 0.8 1.4 0.7 2.2 2.3h0.4v-2.6h2.6v13.1q0 1 0.9 1h0.9v2.4h-1.8q-1.1 0-1.9-0.7-0.7-0.8-0.7-1.9zm-5.3 0.6q1.2 0 2.1-0.4 1-0.5 1.7-1.3 0.7-0.8 1.1-1.9 0.4-1.1 0.4-2.5v-0.4q0-1.3-0.4-2.4-0.4-1.1-1.1-1.9-0.7-0.8-1.7-1.3-1-0.4-2.1-0.4-1.2 0-2.1 0.4-1 0.4-1.7 1.2-0.7 0.8-1.1 1.9-0.4 1.1-0.4 2.5v0.5q0 2.8 1.4 4.4 1.5 1.6 3.9 1.6zm16.3-6.6v8.6h-2.6v-16.5h2.6v2.8h0.4q1.6-3.3 5.4-3.3 2.8 0 4.5 1.8 1.7 1.8 1.7 5.3v9.9h-2.6v-9.3q0-2.6-1.1-3.9-1.2-1.3-3.2-1.3-2.4 0-3.7 1.6-1.4 1.6-1.4 4.3zm38.2 8.6v-23.3h2.8v20.7h12.2v2.6zm32.4-2.6v-0.2h-0.4q-0.8 1.7-2.2 2.5-1.4 0.8-3 0.8-1.6 0-3-0.6-1.4-0.5-2.5-1.6-1-1.1-1.6-2.7-0.6-1.5-0.6-3.6v-0.5q0-2.1 0.6-3.6 0.6-1.6 1.6-2.7 1.1-1.1 2.5-1.6 1.4-0.6 3-0.6 1.7 0 3 0.8 1.4 0.7 2.2 2.3h0.4v-2.6h2.6v13.1q0 1 0.9 1h0.9v2.4h-1.8q-1.1 0-1.9-0.7-0.7-0.8-0.7-1.9zm-5.3 0.6q1.2 0 2.1-0.4 1-0.5 1.7-1.3 0.7-0.8 1.1-1.9 0.4-1.1 0.4-2.5v-0.4q0-1.3-0.4-2.4-0.4-1.1-1.1-1.9-0.7-0.8-1.7-1.3-1-0.4-2.1-0.4-1.2 0-2.1 0.4-1 0.4-1.7 1.2-0.7 0.8-1.1 1.9-0.4 1.1-0.4 2.5v0.5q0 2.8 1.4 4.4 1.5 1.6 3.9 1.6zm15.7-0.5v2.5h-2.6v-23.3h2.6v9.4h0.4q0.9-1.5 2.4-2.3 1.6-0.8 3.4-0.8 1.5 0 2.9 0.6 1.3 0.5 2.4 1.6 1 1.1 1.6 2.6 0.7 1.6 0.7 3.6v0.7q0 2-0.6 3.6-0.6 1.5-1.7 2.6-1 1.1-2.4 1.6-1.4 0.6-3 0.6-0.8 0-1.6-0.2-0.9-0.2-1.6-0.6-0.8-0.4-1.4-0.9-0.6-0.6-1.1-1.3zm5.6 0.5q1.2 0 2.2-0.4 1-0.4 1.7-1.2 0.8-0.8 1.2-1.9 0.4-1.1 0.4-2.4v-0.7q0-1.3-0.4-2.4-0.4-1.1-1.2-1.9-0.7-0.8-1.8-1.2-1-0.4-2.1-0.4-1.2 0-2.2 0.4-1 0.5-1.8 1.3-0.7 0.8-1.1 1.9-0.5 1.1-0.5 2.4v0.4q0 1.4 0.5 2.5 0.4 1.1 1.1 1.9 0.8 0.8 1.8 1.3 1 0.4 2.2 0.4zm16.3-10.3q0 1.2 1 1.9 1 0.6 3.7 0.8 2.9 0.2 4.4 1.4 1.5 1.1 1.5 3.3v0.2q0 1.2-0.5 2.2-0.4 0.9-1.3 1.6-0.8 0.7-2.1 1-1.2 0.4-2.6 0.4-1.9 0-3.3-0.5-1.4-0.6-2.3-1.4-0.9-0.9-1.4-1.9-0.5-1.1-0.5-2.2l2.4-0.6q0.2 1.9 1.5 3 1.3 1.2 3.5 1.2 1.8 0 2.9-0.7 1.1-0.8 1.1-2.1 0-1.4-1.1-2-1.1-0.6-3.5-0.7-2.9-0.2-4.4-1.4-1.6-1.1-1.6-3.3v-0.2q0-1.1 0.5-2 0.5-0.9 1.4-1.5 0.8-0.6 1.9-0.9 1.1-0.3 2.2-0.3 1.7 0 2.9 0.5 1.2 0.4 2.1 1.1 0.8 0.7 1.2 1.7 0.5 0.9 0.6 1.8l-2.4 0.6q-0.2-1.6-1.3-2.5-1.1-0.9-2.9-0.9-0.7 0-1.4 0.2-0.6 0.1-1.1 0.4-0.5 0.3-0.8 0.8-0.3 0.4-0.3 1z"/>
</svg>