<svg width="259" height="101" viewBox="0 0 259 101" fill="none" xmlns="http://www.w3.org/2000/svg">
<path fill-rule="evenodd" clip-rule="evenodd" d="M113.043 65.1677L101.53 47.0539H96.2908V65.1677H92.4727V22.7246H105.94C107.38 22.7246 108.732 23.0009 109.995 23.5533C111.257 24.0861 112.362 24.826 113.309 25.7732C114.257 26.7203 114.997 27.8351 115.529 29.1177C116.082 30.3806 116.358 31.7322 116.358 33.1726V36.6059C116.358 38.0464 116.082 39.4079 115.529 40.6904C114.997 41.9533 114.257 43.0582 113.309 44.0054C112.362 44.9525 111.257 45.7023 109.995 46.2548C108.732 46.7876 107.38 47.0539 105.94 47.0539L117.453 65.1677H113.043ZM112.54 33.1726C112.54 32.2255 112.362 31.3474 112.007 30.5384C111.652 29.7097 111.169 28.9895 110.557 28.3778C109.945 27.7464 109.225 27.2531 108.396 26.8979C107.587 26.5427 106.709 26.3651 105.762 26.3651H96.2908V43.4134H105.762C106.709 43.4134 107.587 43.2358 108.396 42.8807C109.225 42.5255 109.945 42.0421 110.557 41.4304C111.169 40.7989 111.652 40.0787 112.007 39.2697C112.362 38.441 112.54 37.5531 112.54 36.6059V33.1726Z" fill="white"/>
<path fill-rule="evenodd" clip-rule="evenodd" d="M140.764 56.8508C140.764 58.0741 140.528 59.2285 140.054 60.3137C139.6 61.399 138.969 62.3461 138.16 63.1551C137.351 63.9641 136.404 64.6054 135.318 65.0789C134.233 65.5328 133.079 65.7597 131.855 65.7597H129.428C128.205 65.7597 127.051 65.5328 125.965 65.0789C124.88 64.6054 123.933 63.9641 123.124 63.1551C122.315 62.3461 121.674 61.399 121.2 60.3137C120.746 59.2285 120.519 58.0741 120.519 56.8508V43.1766C120.519 41.9533 120.746 40.7989 121.2 39.7137C121.674 38.6284 122.315 37.6813 123.124 36.8723C123.933 36.0633 124.88 35.4319 125.965 34.9781C127.051 34.5045 128.205 34.2677 129.428 34.2677H131.855C133.079 34.2677 134.233 34.5045 135.318 34.9781C136.404 35.4319 137.351 36.0633 138.16 36.8723C138.969 37.6813 139.6 38.6284 140.054 39.7137C140.528 40.7989 140.764 41.9533 140.764 43.1766V56.8508ZM137.124 42.9694C137.124 42.2394 136.986 41.5586 136.709 40.9272C136.433 40.2761 136.058 39.7137 135.585 39.2401C135.111 38.7666 134.549 38.3917 133.898 38.1154C133.266 37.8392 132.585 37.7011 131.855 37.7011H129.428C128.698 37.7011 128.008 37.8392 127.357 38.1154C126.725 38.3917 126.173 38.7666 125.699 39.2401C125.225 39.7137 124.851 40.2761 124.574 40.9272C124.298 41.5586 124.16 42.2394 124.16 42.9694V57.058C124.16 57.788 124.298 58.4786 124.574 59.1298C124.851 59.7612 125.225 60.3137 125.699 60.7873C126.173 61.2608 126.725 61.6357 127.357 61.912C128.008 62.1882 128.698 62.3264 129.428 62.3264H131.855C132.585 62.3264 133.266 62.1882 133.898 61.912C134.549 61.6357 135.111 61.2608 135.585 60.7873C136.058 60.3137 136.433 59.7612 136.709 59.1298C136.986 58.4786 137.124 57.788 137.124 57.058V42.9694Z" fill="white"/>
<path fill-rule="evenodd" clip-rule="evenodd" d="M164.549 60.3137C165.023 59.2285 165.259 58.0741 165.259 56.8508V43.1766C165.259 41.9533 165.023 40.7989 164.549 39.7137C164.095 38.6284 163.464 37.6813 162.655 36.8723C161.846 36.0633 160.899 35.4319 159.813 34.9781C158.728 34.5045 157.574 34.2677 156.35 34.2677H155.433C154.071 34.2677 152.809 34.544 151.644 35.0965C150.48 35.6489 149.484 36.4185 148.655 37.4051V22.7246H145.015V56.8508C145.015 58.0741 145.241 59.2285 145.695 60.3137C146.169 61.399 146.81 62.3461 147.619 63.1551C148.428 63.9641 149.375 64.6054 150.461 65.0789C151.546 65.5328 152.7 65.7597 153.923 65.7597H156.35C157.574 65.7597 158.728 65.5328 159.813 65.0789C160.899 64.6054 161.846 63.9641 162.655 63.1551C163.464 62.3461 164.095 61.399 164.549 60.3137ZM161.204 40.9272C161.481 41.5586 161.619 42.2394 161.619 42.9694V57.058C161.619 57.788 161.481 58.4786 161.204 59.1298C160.928 59.7612 160.553 60.3137 160.08 60.7873C159.606 61.2608 159.044 61.6357 158.393 61.912C157.761 62.1882 157.081 62.3264 156.35 62.3264H153.923C153.193 62.3264 152.503 62.1882 151.852 61.912C151.22 61.6357 150.668 61.2608 150.194 60.7873C149.721 60.3137 149.346 59.7612 149.069 59.1298C148.793 58.4786 148.655 57.788 148.655 57.058V42.9694C148.655 42.2394 148.793 41.5586 149.069 40.9272C149.346 40.2761 149.721 39.7137 150.194 39.2401C150.668 38.7666 151.22 38.3917 151.852 38.1154C152.503 37.8392 153.193 37.7011 153.923 37.7011H156.35C157.081 37.7011 157.761 37.8392 158.393 38.1154C159.044 38.3917 159.606 38.7666 160.08 39.2401C160.553 39.7137 160.928 40.2761 161.204 40.9272Z" fill="white"/>
<path fill-rule="evenodd" clip-rule="evenodd" d="M189.754 56.8508C189.754 58.0741 189.518 59.2285 189.044 60.3137C188.59 61.399 187.959 62.3461 187.15 63.1551C186.341 63.9641 185.394 64.6054 184.308 65.0789C183.223 65.5328 182.069 65.7597 180.846 65.7597H178.419C177.195 65.7597 176.041 65.5328 174.956 65.0789C173.87 64.6054 172.923 63.9641 172.114 63.1551C171.305 62.3461 170.664 61.399 170.19 60.3137C169.737 59.2285 169.51 58.0741 169.51 56.8508V43.1766C169.51 41.9533 169.737 40.7989 170.19 39.7137C170.664 38.6284 171.305 37.6813 172.114 36.8723C172.923 36.0633 173.87 35.4319 174.956 34.9781C176.041 34.5045 177.195 34.2677 178.419 34.2677H180.846C182.069 34.2677 183.223 34.5045 184.308 34.9781C185.394 35.4319 186.341 36.0633 187.15 36.8723C187.959 37.6813 188.59 38.6284 189.044 39.7137C189.518 40.7989 189.754 41.9533 189.754 43.1766V56.8508ZM186.114 42.9694C186.114 42.2394 185.976 41.5586 185.7 40.9272C185.423 40.2761 185.048 39.7137 184.575 39.2401C184.101 38.7666 183.539 38.3917 182.888 38.1154C182.256 37.8392 181.576 37.7011 180.846 37.7011H178.419C177.688 37.7011 176.998 37.8392 176.347 38.1154C175.715 38.3917 175.163 38.7666 174.689 39.2401C174.216 39.7137 173.841 40.2761 173.564 40.9272C173.288 41.5586 173.15 42.2394 173.15 42.9694V57.058C173.15 57.788 173.288 58.4786 173.564 59.1298C173.841 59.7612 174.216 60.3137 174.689 60.7873C175.163 61.2608 175.715 61.6357 176.347 61.912C176.998 62.1882 177.688 62.3264 178.419 62.3264H180.846C181.576 62.3264 182.256 62.1882 182.888 61.912C183.539 61.6357 184.101 61.2608 184.575 60.7873C185.048 60.3137 185.423 59.7612 185.7 59.1298C185.976 58.4786 186.114 57.788 186.114 57.058V42.9694Z" fill="white"/>
<path d="M201.907 64.5462C202.894 64.9605 203.94 65.1677 205.045 65.1677H208.36V61.7048H205.045C204.433 61.7048 203.861 61.5963 203.328 61.3792C202.795 61.1424 202.331 60.8267 201.937 60.4321C201.542 60.0375 201.227 59.5836 200.99 59.0706C200.773 58.5378 200.664 57.9656 200.664 57.3539V38.3226H208.36V34.8597H200.664V26.9867L197.024 27.5786V34.8597H191.578V38.3226H197.024V57.1763C197.024 58.2813 197.231 59.3173 197.645 60.2841C198.079 61.251 198.652 62.0994 199.362 62.8295C200.092 63.5596 200.94 64.1318 201.907 64.5462Z" fill="white"/>
<path d="M223.087 47.5275L231.819 65.1677H235.933L225.13 43.3542L235.311 22.7246H231.197L223.087 39.1513L214.948 22.7246H210.834L221.016 43.3542L210.212 65.1677H214.356L223.087 47.5275Z" fill="white"/>
<path fill-rule="evenodd" clip-rule="evenodd" d="M51.6357 22.7246C44.3742 22.7246 38.0247 25.5725 33.0997 29.0179C28.1825 32.4577 24.5435 36.5897 22.6555 39.4282C22.2567 40.028 22.1746 40.7843 22.4355 41.4556L32.1016 66.3275L26.3449 76.2824L30.1767 78.4982L36.4651 67.6238C36.8013 67.0425 36.8553 66.34 36.6121 65.7142L26.9904 40.9566C28.7403 38.5895 31.7294 35.3784 35.6369 32.6448C40.0726 29.5418 45.5496 27.151 51.6357 27.151C57.388 27.151 61.5701 28.632 64.6247 30.8941C67.6937 33.1669 69.7917 36.3526 71.1488 40.0279C73.6397 46.774 73.5257 54.892 72.5161 60.9207H53.1803L49.8908 51.9682C52.1958 50.329 53.7124 47.6758 53.7124 44.6352C53.7124 39.558 49.484 35.5611 44.417 35.5611C39.3501 35.5611 35.1216 39.558 35.1216 44.6352C35.1216 49.7123 39.3501 53.7092 44.417 53.7092C44.8789 53.7092 45.3337 53.676 45.7791 53.6118L49.5583 63.8972C49.8783 64.7682 50.7077 65.3471 51.6357 65.3471H74.3506C75.3972 65.3471 76.3008 64.614 76.5164 63.5898C77.9053 56.9919 78.4353 46.9831 75.3011 38.4947C73.72 34.2126 71.1744 30.2365 67.259 27.3369C63.3291 24.4266 58.1856 22.7246 51.6357 22.7246ZM39.548 44.6352C39.548 42.134 41.6612 39.9875 44.417 39.9875C47.1729 39.9875 49.286 42.134 49.286 44.6352C49.286 47.1363 47.1729 49.2829 44.417 49.2829C41.6612 49.2829 39.548 47.1363 39.548 44.6352Z" fill="white"/>
</svg>
