<svg width="223" height="95" viewBox="0 0 223 95" fill="none" xmlns="http://www.w3.org/2000/svg">
<path d="M80.5117 32.0291V25.9219H111.239V32.0291H99.3782V68.1791H92.4953V32.0291H80.5117Z" fill="white"/>
<path d="M130.06 62.6271L131.781 62.442L131.904 67.4388C127.233 68.3847 123.095 68.8577 119.49 68.8577C114.942 68.8577 111.665 67.6034 109.657 65.0946C107.691 62.5859 106.708 58.5761 106.708 53.0652C106.708 42.1256 111.153 36.6558 120.043 36.6558C128.647 36.6558 132.948 41.3648 132.948 50.7827L132.518 55.5945H113.467C113.508 58.1443 114.062 60.0155 115.127 61.2082C116.192 62.4009 118.179 62.9972 121.088 62.9972C123.997 62.9972 126.987 62.8738 130.06 62.6271ZM126.373 50.4126C126.373 47.3692 125.881 45.2512 124.898 44.0586C123.956 42.8248 122.337 42.2079 120.043 42.2079C117.749 42.2079 116.069 42.8453 115.004 44.1203C113.98 45.3952 113.447 47.4926 113.406 50.4126H126.373Z" fill="white"/>
<path d="M136.317 68.1791V37.3344H142.954V41.0358C146.436 38.7738 149.919 37.3139 153.401 36.6558V43.38C149.878 44.0791 146.867 44.9839 144.367 46.0943L143.015 46.6495V68.1791H136.317Z" fill="white"/>
<path d="M155.449 68.1791V37.3344H162.086V41.0358C165.569 38.7738 169.051 37.3139 172.534 36.6558V43.38C169.01 44.0791 165.999 44.9839 163.5 46.0943L162.148 46.6495V68.1791H155.449Z" fill="white"/>
<path d="M197.32 46.8346V60.8998C197.361 61.8045 197.586 62.4831 197.996 62.9355C198.446 63.3468 199.122 63.6141 200.024 63.7375L199.839 68.8577C196.316 68.8577 193.592 68.0969 191.666 66.5752C188.388 68.0969 185.09 68.8577 181.772 68.8577C175.667 68.8577 172.615 65.5882 172.615 59.0491C172.615 55.9235 173.435 53.6615 175.073 52.2633C176.753 50.865 179.314 50.0219 182.755 49.734L190.683 49.0554V46.8346C190.683 45.1895 190.314 44.038 189.577 43.38C188.88 42.722 187.835 42.3929 186.442 42.3929C183.82 42.3929 180.543 42.5575 176.61 42.8865L174.643 43.0098L174.397 38.2598C178.863 37.1905 182.96 36.6558 186.688 36.6558C190.457 36.6558 193.161 37.4784 194.8 39.1234C196.48 40.7273 197.32 43.2977 197.32 46.8346ZM183.554 54.4841C180.727 54.7308 179.314 56.2731 179.314 59.1108C179.314 61.9485 180.563 63.3673 183.062 63.3673C185.111 63.3673 187.282 63.0383 189.577 62.3803L190.683 62.0102V53.8055L183.554 54.4841Z" fill="white"/>
<path fill-rule="evenodd" clip-rule="evenodd" d="M61.9182 22.3809C67.2658 22.3809 71.7274 26.1741 72.7593 31.2166C72.9067 31.937 72.9841 32.6828 72.9841 33.4468V61.7756C72.9841 67.8871 68.0297 72.8415 61.9182 72.8415H33.5894C32.3795 72.8415 31.2149 72.6473 30.1251 72.2884C25.7103 70.8345 22.5234 66.6772 22.5234 61.7756V33.4468C22.5234 27.3352 27.4778 22.3809 33.5894 22.3809H61.9182ZM57.4299 25.922H61.9182C65.5855 25.922 68.6401 28.5454 69.3075 32.0181C67.1777 32.2593 64.7434 32.0357 62.1728 30.9341C59.8947 29.9577 58.3836 28.1489 57.4299 25.922ZM46.923 25.922H53.6488C54.7662 29.2858 56.907 32.5299 60.7779 34.1888C63.8829 35.5196 66.8319 35.8283 69.443 35.569V39.1872C65.8978 40.3095 62.365 40.7637 59.5383 39.9363C58.1343 39.5254 56.5233 38.4343 54.7896 36.718C53.0796 35.0251 51.3733 32.8478 49.762 30.4679C48.7607 28.9888 47.8072 27.4482 46.923 25.922ZM42.8561 25.922H38.1703C38.3839 29.929 37.4398 34.8235 33.9276 39.7818C31.6007 43.0668 28.8491 44.8737 26.0645 45.6806V52.7399C27.7424 51.7209 29.7177 50.3293 32.0303 48.4503C37.4947 44.0106 41.7985 42.2441 45.0619 41.921C48.3066 41.5997 50.613 42.7252 51.6291 44.1477C52.6957 45.6409 53.2987 47.6421 53.5257 49.7528C53.7554 51.8889 53.6154 54.2715 53.0766 56.6361C52.0055 61.3368 49.2866 66.23 44.3882 68.8676C44.1215 69.0112 43.8523 69.1555 43.5811 69.3004H49.0851C51.2379 66.5677 52.9604 63.8525 53.5782 61.7246C54.2755 59.3226 54.5618 56.7762 54.8294 54.3954L54.8295 54.3949L54.8296 54.3944C54.9257 53.5393 55.0194 52.7054 55.129 51.9075C55.3188 50.5245 55.5807 49.0594 56.1434 48.0029C56.4413 47.4438 56.9144 46.8214 57.6759 46.4621C58.4776 46.0838 59.3118 46.1302 60.0435 46.3741C62.0945 47.0578 64.8212 47.1995 69.443 46.0418V42.8832C65.879 43.8874 61.9928 44.3444 58.5436 43.3349C56.3179 42.6834 54.2053 41.1224 52.2983 39.2345C50.3675 37.3231 48.5161 34.944 46.8298 32.4531C45.3873 30.3224 44.0445 28.0785 42.8561 25.922ZM69.443 49.6837C65.04 50.6915 61.8738 50.6495 59.196 49.821C58.998 50.2843 58.8133 51.106 58.6372 52.389C58.5497 53.0262 58.4685 53.7508 58.3807 54.5343L58.3806 54.5349C58.1069 56.9766 57.7692 59.9896 56.9788 62.7119C56.373 64.7985 55.063 67.0906 53.5056 69.3004H57.0683C57.7253 67.6664 58.3306 66.11 58.8058 64.8019C59.3165 63.3962 59.6365 62.3853 59.7394 61.8708C59.9348 60.8938 60.3071 59.8428 61.1802 59.0974C62.0884 58.3222 63.2039 58.1558 64.249 58.209C65.278 58.2613 66.4847 58.5384 67.8459 58.9289C68.3409 59.0708 68.8729 59.2328 69.443 59.4127V49.6837ZM69.3278 63.0943C68.4035 62.7941 67.5902 62.5394 66.8696 62.3327C65.5544 61.9555 64.6723 61.7762 64.0691 61.7455C63.6797 61.7257 63.5221 61.7736 63.4768 61.7938C63.4515 61.8238 63.3257 61.9952 63.2117 62.5653C63.049 63.3788 62.6368 64.6272 62.1341 66.011C61.7731 67.0045 61.3442 68.1244 60.8802 69.3004H61.9182C65.6241 69.3004 68.7044 66.6213 69.3278 63.0943ZM35.9405 69.3004C38.2595 68.1045 40.6001 66.8855 42.7094 65.7497C46.4424 63.7396 48.7032 59.8907 49.624 55.8494C50.0811 53.8429 50.1901 51.8544 50.0049 50.1313C49.8168 48.3828 49.3409 47.0365 48.7476 46.2059C48.6571 46.0792 47.7544 45.2128 45.4108 45.4448C43.086 45.675 39.4223 47.0069 34.2633 51.1986C31.0339 53.8225 28.3313 55.6204 26.0645 56.8088V60.8024C26.6233 60.291 27.2543 59.8639 27.8374 59.4995C28.4315 59.1282 29.0788 58.763 29.715 58.4063L29.8726 58.3179C30.4669 57.9848 31.0567 57.6542 31.6424 57.3034C32.9236 56.536 34.0757 55.7345 34.9615 54.8019C36.4953 53.1873 38.709 51.2601 40.7903 49.9446C41.817 49.2956 42.9259 48.7215 43.9721 48.4579C44.9539 48.2106 46.4764 48.11 47.5372 49.3227C48.5467 50.4767 48.9651 52.2076 48.2297 54.4541C47.5313 56.5877 45.7772 59.282 42.3866 62.7856C38.8671 66.4224 35.3474 68.2443 32.38 68.8248C32.0453 68.8903 31.7161 68.9402 31.3935 68.975C32.0882 69.1866 32.8255 69.3004 33.5894 69.3004H35.9405ZM26.0645 41.9338C27.7802 41.2223 29.4894 39.9213 31.038 37.735C34.0958 33.418 34.8347 29.2321 34.6243 25.922H33.5894C29.4335 25.922 26.0645 29.2909 26.0645 33.4468V41.9338ZM63.4734 61.7954C63.4651 61.7994 63.4617 61.802 63.4621 61.8023C63.4623 61.8025 63.4642 61.8017 63.4674 61.7996L63.4696 61.7982L63.4734 61.7954ZM42.6822 52.9379C40.8991 54.0649 38.9075 55.7894 37.529 57.2407C36.3125 58.5213 34.8365 59.518 33.4619 60.3413C32.8302 60.7197 32.1968 61.0747 31.6096 61.4037L31.447 61.4949C30.8036 61.8557 30.2267 62.1821 29.7141 62.5024C28.6089 63.1931 28.1468 63.6575 28.002 63.9548C27.9605 64.04 27.9556 64.0889 27.9684 64.1634C27.9866 64.2693 28.0628 64.514 28.366 64.9183L28.3955 64.9576L28.4228 64.9985C28.4245 65.0009 28.4644 65.0558 28.5911 65.1333C28.722 65.2134 28.9246 65.3041 29.2123 65.3748C29.7906 65.5171 30.6324 65.5585 31.7001 65.3496C33.8232 64.9343 36.7219 63.5471 39.8419 60.323C43.0909 56.9657 44.4123 54.7334 44.8644 53.3525C45.1335 52.5303 45.0784 52.085 44.9924 51.8575C44.9492 51.8654 44.8978 51.8765 44.8371 51.8918C44.3258 52.0206 43.5877 52.3655 42.6822 52.9379ZM45.1829 51.8408C45.1821 51.8417 45.1715 51.8418 45.1536 51.8384C45.1747 51.8381 45.1836 51.8399 45.1829 51.8408Z" fill="white"/>
</svg>
