<svg width="49" height="49" viewBox="0 0 49 49" fill="none" xmlns="http://www.w3.org/2000/svg">
<path fill-rule="evenodd" clip-rule="evenodd" d="M0.5 0.592773H48.5V48.5928H0.5V0.592773ZM12.5 24.8441C12.5 18.2386 17.8578 12.8808 24.4633 12.8808C31.0688 12.8808 36.4266 18.2386 36.5 24.8441C36.5 30.1285 33.1238 34.6055 28.3532 36.2202C27.7661 36.2936 27.5459 35.9266 27.5459 35.6331V32.3303C27.5459 31.2294 27.1789 30.4955 26.7386 30.1285C29.3808 29.8349 32.1697 28.8808 32.1697 24.2569C32.1697 22.9358 31.6559 21.8349 30.9221 21.0276C30.9278 21.0045 30.9359 20.9756 30.9455 20.941C31.0578 20.5357 31.3839 19.3594 30.7752 17.8716C30.7752 17.8716 29.7477 17.578 27.4724 19.1193C26.5184 18.8991 25.4908 18.7523 24.4633 18.7523C23.4358 18.7523 22.4083 18.8257 21.4541 19.1193C19.1789 17.578 18.1514 17.8716 18.1514 17.8716C17.5027 19.4572 17.9157 20.689 18.0003 20.9413L18.0046 20.9542C17.1972 21.8349 16.7568 22.8624 16.7568 24.1835C16.7568 28.8074 19.5459 29.8349 22.1881 30.1285C21.8945 30.4221 21.5276 30.9358 21.4541 31.7432C20.7936 32.0367 19.1055 32.5505 18.0046 30.7156C18.0046 30.7156 17.3441 29.5413 16.1697 29.4679C16.1697 29.4679 14.9955 29.4679 16.0964 30.2019C16.0964 30.2019 16.9037 30.5688 17.4174 31.9633C17.4174 31.9633 18.1514 34.312 21.4541 33.578V35.6331C21.4541 35.9266 21.2339 36.2936 20.6468 36.2202C15.9495 34.6055 12.5 30.1285 12.5 24.8441Z" fill="#1D1D1D"/>
</svg>
