<svg width="127" height="44" viewBox="0 0 127 44" fill="none" xmlns="http://www.w3.org/2000/svg">
<path fill-rule="evenodd" clip-rule="evenodd" d="M40.61 5.75533V34.1823L32.488 42.3043H0V1.69434H8.12199V5.75533H16.244V1.69434H24.366V5.75533H32.488V1.69434H40.61V5.75533ZM32.488 28.4969V17.9383H8.12199V34.1823H26.8026L32.488 28.4969Z" fill="#FF4800"/>
<path fill-rule="evenodd" clip-rule="evenodd" d="M110.228 21.8646L110.26 35.699L112.54 35.7331L114.82 35.7671V29.5871C114.82 23.0821 114.864 22.4673 115.384 21.6434C116.122 20.4741 117.213 19.9705 118.857 20.0409C120.767 20.1224 121.997 21.0894 122.314 22.7569C122.389 23.157 122.441 25.9256 122.441 29.598V35.7671L124.721 35.7331L127.001 35.699V28.5788C127.001 20.8228 126.997 20.7709 126.28 19.3351C125.775 18.3225 124.459 17.0403 123.414 16.5419C121.046 15.4115 118.128 15.3757 115.867 16.4492C115.121 16.8034 114.951 16.8455 114.892 16.6911C114.852 16.5882 114.82 14.5974 114.82 12.2671V8.03027H112.508H110.196L110.228 21.8646ZM47.7305 22.7078V35.7614L52.6341 35.7592C59.1709 35.7561 60.2317 35.6033 62.7573 34.3012C64.9794 33.1553 66.8009 30.9042 67.5899 28.329C68.3656 25.7965 68.446 20.7039 67.7575 17.7112C66.9378 14.1485 64.4257 11.4042 60.9601 10.2856C59.2179 9.72337 58.3377 9.65455 52.884 9.6543L47.7305 9.65417V22.7078ZM52.7278 22.7078V31.1396H55.3022C58.789 31.1396 59.7774 30.8724 61.2425 29.5336C62.7469 28.1587 63.2233 26.4866 63.2214 22.5861C63.2194 18.2772 62.3911 16.2517 60.1444 15.0625C58.8111 14.3566 58.3241 14.276 55.3912 14.276H52.7278V22.7078ZM77.902 15.8319C75.8764 16.2424 74.655 16.8587 73.4085 18.0992C72.5847 18.9191 71.9 20.088 71.5135 21.3337C71.3085 21.9945 71.2812 22.5264 71.2822 25.8307C71.2835 30.0721 71.3644 30.5663 72.3084 32.1009C73.6751 34.3228 75.6479 35.5062 78.6363 35.8972C80.6711 36.1634 83.2911 35.6811 84.9431 34.7364C85.9248 34.175 87.1105 33.0091 87.5632 32.1599C87.9918 31.3558 88.3941 29.9775 88.2841 29.6906C88.2265 29.5405 87.84 29.5157 86.0064 29.544L83.798 29.5781L83.4737 30.1655C83.0907 30.8589 82.669 31.2099 81.841 31.5244C80.4126 32.0672 78.5166 31.9394 77.3157 31.2197C76.2959 30.6084 75.8119 29.6922 75.7888 28.329L75.7782 27.7044L82.1306 27.6721L88.4831 27.6397L88.4275 24.8615C88.3666 21.8147 88.2676 21.2412 87.5508 19.7853C86.8307 18.3229 85.062 16.8239 83.3307 16.2087C81.8664 15.6883 79.4407 15.5199 77.902 15.8319ZM91.3607 18.3045L91.3949 20.4593L96.1112 20.4921C98.7051 20.51 100.827 20.5554 100.827 20.5926C100.827 20.6829 93.3314 29.1735 91.6813 30.9522L91.3336 31.327L91.3331 33.5442L91.3324 35.7614H99.2033H107.074V33.5754V31.3894H102.272C99.6301 31.3894 97.4413 31.3447 97.4076 31.2901C97.3738 31.2355 97.5259 30.9966 97.7456 30.7592C97.9653 30.5219 99.1267 29.2315 100.327 27.8918C101.526 26.5521 102.566 25.3944 102.636 25.3192C102.706 25.2438 103.189 24.7098 103.709 24.1325C104.229 23.555 105.171 22.5106 105.802 21.8114L106.949 20.5403V18.345V16.1498H99.1378H91.3266L91.3607 18.3045ZM78.1248 20.2618C76.4813 20.822 75.5663 22.0967 75.7363 23.5896L75.7782 23.957H79.8385H83.8989L83.8783 23.1921C83.8481 22.0711 83.3589 21.2528 82.3297 20.6016C81.3948 20.01 79.3485 19.8448 78.1248 20.2618Z" fill="#FF4800"/>
</svg>
