<svg width="48" height="49" viewBox="0 0 48 49" fill="none" xmlns="http://www.w3.org/2000/svg">
<path fill-rule="evenodd" clip-rule="evenodd" d="M26.616 28.7928C26.976 29.2488 27.408 29.7648 27.408 29.7648C30.06 29.6808 31.08 27.9408 31.08 27.9408C31.08 24.0768 29.352 20.9448 29.352 20.9448C27.624 19.6488 25.98 19.6848 25.98 19.6848L25.812 19.8768C27.852 20.5008 28.8 21.4008 28.8 21.4008C27.552 20.7168 26.328 20.3808 25.188 20.2488C24.324 20.1528 23.496 20.1768 22.764 20.2728C22.7011 20.2728 22.6474 20.2819 22.5869 20.2922L22.56 20.2968C22.14 20.3328 21.12 20.4888 19.836 21.0528C19.392 21.2568 19.128 21.4008 19.128 21.4008C19.128 21.4008 20.124 20.4528 22.284 19.8288L22.164 19.6848C22.164 19.6848 20.52 19.6488 18.792 20.9448C18.792 20.9448 17.064 24.0768 17.064 27.9408C17.064 27.9408 18.072 29.6808 20.724 29.7648C20.724 29.7648 21.168 29.2248 21.528 28.7688C20.004 28.3128 19.428 27.3528 19.428 27.3528C19.428 27.3528 19.548 27.4368 19.764 27.5568C19.776 27.5688 19.788 27.5808 19.812 27.5928C19.83 27.6048 19.848 27.6138 19.866 27.6228C19.884 27.6318 19.902 27.6408 19.92 27.6528C20.22 27.8208 20.52 27.9528 20.796 28.0608C21.288 28.2528 21.876 28.4448 22.56 28.5768C23.46 28.7448 24.516 28.8048 25.668 28.5888C26.232 28.4928 26.808 28.3248 27.408 28.0728C27.828 27.9168 28.296 27.6888 28.788 27.3648C28.788 27.3648 28.188 28.3488 26.616 28.7928ZM20.604 25.4928C20.604 24.7608 21.144 24.1608 21.828 24.1608C22.512 24.1608 23.064 24.7608 23.052 25.4928C23.052 26.2248 22.512 26.8248 21.828 26.8248C21.156 26.8248 20.604 26.2248 20.604 25.4928ZM24.984 25.4928C24.984 24.7608 25.524 24.1608 26.208 24.1608C26.892 24.1608 27.432 24.7608 27.432 25.4928C27.432 26.2248 26.892 26.8248 26.208 26.8248C25.536 26.8248 24.984 26.2248 24.984 25.4928Z" fill="#1D1D1D"/>
<path fill-rule="evenodd" clip-rule="evenodd" d="M0 0.592773H48V48.5928H0V0.592773ZM15.96 14.0928H32.04C33.396 14.0928 34.5 15.1968 34.5 16.5648V38.0928L31.92 35.8128L30.468 34.4688L28.932 33.0408L29.568 35.2608H15.96C14.604 35.2608 13.5 34.1568 13.5 32.7888V16.5648C13.5 15.1968 14.604 14.0928 15.96 14.0928Z" fill="#1D1D1D"/>
</svg>
