<svg width="48" height="49" viewBox="0 0 48 49" fill="none" xmlns="http://www.w3.org/2000/svg">
<path fill-rule="evenodd" clip-rule="evenodd" d="M0 0.592773H48V48.5928H0V0.592773ZM12.3 20.5428V36.5928H17.4V20.5428H12.3ZM12 15.4428C12 17.0928 13.2 18.2928 14.85 18.2928C16.5 18.2928 17.7 17.0928 17.7 15.4428C17.7 13.7928 16.5 12.5928 14.85 12.5928C13.35 12.5928 12 13.7928 12 15.4428ZM30.9 36.5928H35.7V26.6928C35.7 21.7428 32.7 20.0928 29.85 20.0928C27.3 20.0928 25.5 21.7428 25.05 22.7928V20.5428H20.25V36.5928H25.35V28.0428C25.35 25.7928 26.85 24.5928 28.35 24.5928C29.85 24.5928 30.9 25.3428 30.9 27.8928V36.5928Z" fill="#1D1D1D"/>
</svg>
