<svg width="49" height="49" viewBox="0 0 49 49" fill="none" xmlns="http://www.w3.org/2000/svg">
<path fill-rule="evenodd" clip-rule="evenodd" d="M0.5 0.592773H48.5V48.5928H0.5V0.592773ZM25.5378 18.6038C23.3883 19.4979 19.0923 21.3483 12.6499 24.1552C11.6037 24.5712 11.0557 24.9782 11.0058 25.3762C10.9215 26.0487 11.7637 26.3136 12.9106 26.6742C13.0666 26.7232 13.2283 26.7741 13.394 26.8279C14.5223 27.1947 16.0402 27.6238 16.8292 27.6409C17.545 27.6563 18.3439 27.3613 19.2258 26.7556C25.2452 22.6924 28.3524 20.6386 28.5475 20.5943C28.6851 20.5631 28.8759 20.5238 29.0051 20.6387C29.1343 20.7535 29.1216 20.971 29.1079 21.0294C29.0245 21.3851 25.7184 24.4587 24.0076 26.0492C23.4742 26.5451 23.0959 26.8968 23.0185 26.9772C22.8453 27.1571 22.6687 27.3273 22.499 27.4909C21.4507 28.5015 20.6646 29.2593 22.5425 30.4968C23.445 31.0915 24.1671 31.5833 24.8876 32.0739C25.6743 32.6097 26.4591 33.1441 27.4744 33.8096C27.7331 33.9792 27.9801 34.1553 28.2208 34.3269C29.1364 34.9796 29.959 35.5661 30.9753 35.4726C31.5658 35.4182 32.1758 34.8629 32.4856 33.2068C33.2177 29.293 34.6567 20.8129 34.9893 17.3185C35.0185 17.0123 34.9818 16.6205 34.9524 16.4485C34.9229 16.2765 34.8614 16.0314 34.6379 15.85C34.3731 15.6352 33.9643 15.5899 33.7815 15.5929C32.9503 15.6077 31.675 16.0511 25.5378 18.6038Z" fill="#1D1D1D"/>
</svg>
